<svg xmlns="http://www.w3.org/2000/svg" xmlns:xlink="http://www.w3.org/1999/xlink" xmlns:sketch="http://www.bohemiancoding.com/sketch/ns" viewBox="0 0 90 102.5" version="1.1" x="0px" y="0px"><title>Fill 313 + Fill 314</title><desc>Created with Sketch.</desc><g stroke="none" stroke-width="1" fill="none" fill-rule="evenodd" sketch:type="MSPage"><g sketch:type="MSLayerGroup" fill="#000000"><path d="M85.5684298,77.356844 C83.1845455,80.2193211 75.7450413,78.9930826 65.857686,74.2182752 C66.4378512,73.8955413 67.0090909,73.5615229 67.571405,73.2117064 C72.2290909,75.4196881 75.9518182,76.5375963 78.6897521,76.5375963 C80.6571074,76.5375963 82.1231405,75.9666055 83.0744628,74.8238716 C85.1823967,72.2916514 84.1098347,67.7056697 79.9043802,61.1938165 C80.1133884,60.8763486 80.3134711,60.5521101 80.5128099,60.2286239 C85.7945455,68.2841835 87.7366116,74.753156 85.5684298,77.356844 L85.5684298,77.356844 Z M55.4898347,71.9613945 C56.6717355,72.677578 57.8424793,73.3621651 58.9968595,74.0113945 C56.711157,74.809578 54.3257851,75.383578 51.8630579,75.6980367 C53.1044628,74.4567523 54.3652066,73.1673211 55.4898347,71.9613945 L55.4898347,71.9613945 Z M58.3921488,36.6344404 C54.7906612,32.0341651 51.2278512,30.5017431 48.3657025,29.2702385 C47.2790083,28.8030642 46.3410744,28.3998349 45.5303306,27.8890275 C44.2814876,27.1013761 42.6131405,25.3921651 40.8473554,23.5806422 C38.3853719,21.0574495 35.8400826,18.4469908 33.4532231,17.2794312 C29.9171901,15.5484037 26.3223967,15.5566789 23.058595,17.3042569 C21.7666116,17.996367 17.8333884,20.102789 18.8858678,23.0344771 C19.8238017,25.6471927 22.8838017,25.3665872 23.8894215,25.2725505 C25.001405,25.1702385 26.617686,25.5012477 27.27,25.8540734 C28.7605785,26.6590275 30.9793388,28.9512661 32.5182645,30.8673578 C33.1341322,31.633945 33.3870248,32.3019817 33.7693388,33.3138165 C34.2342149,34.5445688 34.8136364,36.0762385 36.2603306,38.3752477 C37.3641322,40.1311009 38.4389256,41.3483119 39.3024793,42.3262936 C40.5290083,43.7150275 41.2690909,44.5530826 41.4996694,46.071211 C41.8328926,48.2536147 40.7387603,49.1638899 40.6398347,49.2413761 C40.575124,49.2865138 40.5141322,49.3369174 40.4576033,49.3910826 L39.3560331,50.4510642 C39.1232231,50.2547156 38.8904132,50.0613761 38.6576033,49.8627706 C28.702562,41.3836697 19.9420661,32.2839266 14.4617355,24.7549725 C20.073719,12.0111193 32.7086777,3.10245872 47.3704959,3.10245872 C67.2285124,3.10245872 83.3838843,19.4588257 83.3838843,39.5428073 C83.3838843,52.0526972 77.0095041,63.196422 67.3780165,69.7737248 C65.163719,68.6610826 62.7857851,67.3250092 60.281405,65.7880734 C61.4112397,63.7967523 62.4466116,61.2615229 63.1457851,57.8039817 C64.3544628,51.8315229 63.352562,42.9695046 58.3921488,36.6344404 L58.3921488,36.6344404 Z M11.358595,39.5179817 C11.358595,37.5913578 11.5095868,35.6993394 11.7959504,33.8524587 C17.6355372,41.1647523 25.1070248,48.7614128 33.5863636,55.9841835 C33.5900826,55.9871927 33.5930579,55.9902018 33.5960331,55.9924587 L22.9418182,66.2447156 C15.5744628,59.3529541 11.358595,49.6746972 11.358595,39.5179817 L11.358595,39.5179817 Z M3.91834711,7.81106422 C6.09619835,5.19533945 12.7673554,6.04919266 21.5695041,9.98293578 C21.2905785,10.231945 21.0153719,10.4862202 20.7438843,10.7442569 C13.604876,7.60192661 8.90404959,7.29122936 6.78123967,9.84 C4.49181818,12.5888807 5.94371901,17.7405872 11.073719,25.143156 C10.8334711,25.7615413 10.608843,26.3874495 10.3990909,27.021633 C4.01057851,17.9316697 1.52404959,10.6863303 3.91834711,7.81106422 L3.91834711,7.81106422 Z M12.4973554,21.9090459 C8.69727273,16.046422 8.20413223,12.8017798 9.05652893,11.7779083 C9.83975207,10.8390459 12.776281,10.6968624 18.4901653,13.0485321 C16.1144628,15.6988624 14.0972727,18.6802018 12.4973554,21.9090459 L12.4973554,21.9090459 Z M35.7664463,53.904844 C35.6786777,53.8296147 35.5901653,53.7566422 35.5023967,53.6814128 C26.4138843,45.9403119 18.5154545,37.7779266 12.6052066,30.0323119 C12.783719,29.3642752 12.982314,28.7060183 13.1965289,28.0537798 C18.8442149,35.4518349 27.2714876,44.097945 36.7408264,52.1640367 C36.8895868,52.290422 37.0368595,52.4137982 37.1856198,52.5394312 L35.7664463,53.904844 L35.7664463,53.904844 Z M78.022562,63.8080367 C81.2268595,69.0372294 81.5742149,71.9538716 80.7991736,72.8859633 C79.9542149,73.900055 76.7439669,73.9692661 70.4603306,71.2309174 C73.2986777,69.1011743 75.8432231,66.6035596 78.022562,63.8080367 L78.022562,63.8080367 Z M62.5604132,72.5429174 C60.9218182,71.6687523 59.2371074,70.714844 57.5226446,69.6864587 C57.6453719,69.5405138 57.7658678,69.397578 57.8781818,69.259156 C58.1273554,68.9537248 58.3802479,68.6332477 58.6338843,68.2954679 C60.6280165,69.523211 62.5552066,70.6373578 64.3849587,71.6108257 C63.7869421,71.939578 63.1777686,72.2487706 62.5604132,72.5429174 L62.5604132,72.5429174 Z M82.1447107,57.3082202 C84.8320661,51.9902569 86.3590909,45.9952294 86.3590909,39.6428624 C86.3590909,17.8993211 68.868595,0.076733945 47.3704959,0.076733945 C38.6724793,0.076733945 30.6319835,2.97456881 24.1393388,7.86297248 C12.9503306,2.59315596 4.97231405,1.87321101 1.64231405,5.87089908 C-2.00975207,10.2582752 0.746033058,19.0668807 9.37561983,30.7041101 C8.73371901,33.538 8.38338843,36.4824771 8.38338843,39.5104587 C8.38338843,50.852789 13.2277686,61.6579817 21.6743802,69.1538349 C21.7219835,69.1959633 21.7747934,69.2283119 21.8261157,69.2636697 C21.8469421,69.2877431 21.862562,69.315578 21.8841322,69.3396514 C22.4509091,69.9407339 23.392562,69.9655596 23.9876033,69.3923119 L42.4368595,51.6396881 C43.4595868,50.8595596 44.9271074,48.8050459 44.4406612,45.6138165 C44.0754545,43.214 42.8920661,41.8734128 41.5212397,40.3214312 C40.6889256,39.378055 39.7442975,38.3097982 38.7706612,36.7608257 C37.4853719,34.7175963 36.9877686,33.4003303 36.5481818,32.238789 C36.1338843,31.1434495 35.7433884,30.1090459 34.8270248,28.9693211 C33.1497521,26.8809541 30.6520661,24.2697431 28.6713223,23.1999817 C27.4403306,22.5349541 25.2230579,22.1309725 23.6201653,22.2761651 C22.514876,22.3777248 21.8543802,22.2994862 21.7026446,22.0489725 C21.7733058,21.8857248 22.1942975,21.1710459 24.4509917,19.9636147 C26.8765289,18.6644037 29.4694215,18.6719266 32.1575207,19.9884404 C34.0824793,20.9303119 36.551157,23.4617798 38.7290083,25.6945872 C40.6219835,27.6355046 42.4100826,29.468844 43.9571901,30.4430642 C44.9642975,31.0772477 46.0509917,31.544422 47.2009091,32.0401835 C49.8852893,33.1942018 52.9281818,34.5031927 56.0595868,38.501633 C60.4257025,44.0791376 61.301157,51.9120183 60.2315702,57.2013945 C59.1805785,62.3937248 57.3768595,65.1448624 55.5828099,67.3445688 C54.0297521,69.2508807 50.962314,72.444367 46.9457851,76.3359817 C46.6229752,76.6489358 46.4764463,77.0732294 46.4950413,77.4915046 C46.4935537,77.5215963 46.4876033,77.5501835 46.4876033,77.5802752 C46.5002479,78.4025321 47.163719,79.1931927 47.9744628,79.1931927 L47.9982645,79.1931927 C53.1200826,79.0111376 58.0076033,77.8450826 62.478595,75.8898716 C70.185124,79.8589725 76.5245455,81.8751193 81.1323967,81.8751193 C84.1373554,81.8751193 86.4089256,81.0190092 87.8444628,79.2947523 C91.1633058,75.3083486 89.1282645,67.5138349 82.1447107,57.3082202 L82.1447107,57.3082202 Z" sketch:type="MSShapeGroup"/><path d="M64.908595,36.7864037 C63.5898347,35.316422 63.6084298,33.1174679 64.9502479,31.8859633 L69.6042149,27.6136881 C70.1747107,27.0900917 70.9281818,26.8004587 71.7255372,26.8004587 C72.7363636,26.8004587 73.7219008,27.2525872 74.4277686,28.0394862 L74.4917355,28.1109541 C75.1410744,28.8339083 75.487686,29.7509541 75.4683471,30.6913211 C75.4497521,31.6015963 75.0875207,32.4246055 74.4493388,33.0121468 L71.5507438,35.6730092 C71.4101653,35.7790826 71.2740496,35.8934312 71.1423967,36.0137982 L69.5833884,37.4446606 C69.0426446,37.8599266 68.3799174,38.0961468 67.6747934,38.0961468 C66.6639669,38.0961468 65.677686,37.6440183 64.9718182,36.8571193 L64.908595,36.7864037 L64.908595,36.7864037 Z M58.9254545,27.8175596 C58.2195868,27.0321651 57.8432231,26.0361284 57.8640496,25.0122569 C57.884876,24.0199817 58.2805785,23.1209908 58.9782645,22.480789 L63.9193388,17.9429541 C64.5426446,17.3704587 65.3652893,17.0552477 66.2355372,17.0552477 C67.334876,17.0552477 68.407438,17.5472477 69.1802479,18.4086239 L69.2427273,18.4770826 C69.948595,19.2632294 70.3249587,20.2600183 70.3041322,21.2838899 C70.2833058,22.2761651 69.8876033,23.175156 69.1899174,23.8161101 L64.2495868,28.3531927 C63.6255372,28.9264404 62.8028926,29.2408991 61.9326446,29.2408991 C60.8333058,29.2408991 59.7614876,28.7488991 58.9909091,27.8905321 L58.9254545,27.8175596 L58.9254545,27.8175596 Z M77.3828926,38.6836881 C77.947438,39.3133578 78.2501653,40.1092844 78.2330579,40.9270275 C78.217438,41.7139266 77.9042975,42.4255963 77.3531405,42.9318899 L73.1328099,46.8069541 C72.5013223,47.3869725 71.7880165,47.508844 71.3008264,47.508844 C70.4231405,47.508844 69.5655372,47.1146422 68.9370248,46.4142569 L68.8923967,46.3661101 C67.747686,45.0894679 67.7610744,43.183156 68.9221488,42.1156514 L71.373719,39.864789 C71.5195041,39.7542018 71.6608264,39.6360917 71.7969421,39.511211 L73.4228926,38.0186606 C73.9770248,37.6312294 74.5579339,37.5394495 74.9744628,37.5394495 C75.8521488,37.5394495 76.7097521,37.9344037 77.3256198,38.6197431 L77.3828926,38.6836881 L77.3828926,38.6836881 Z M66.6996694,48.4010642 L66.7457851,48.4499633 C67.9261983,49.7642202 69.5863636,50.5180183 71.3008264,50.5180183 C72.7304132,50.5180183 74.0915702,49.9914128 75.1328926,49.0344954 L79.3524793,45.1601835 C80.5157851,44.0926789 81.1747934,42.6114128 81.2075207,40.9894679 C81.2402479,39.3991193 80.6638017,37.8614312 79.5867769,36.6622752 L79.5295041,36.5983303 C78.7894215,35.7738165 77.8596694,35.1704771 76.8466116,34.8349541 C77.8470248,33.7305872 78.4108264,32.3027339 78.4428099,30.7545138 C78.4785124,29.0400367 77.857438,27.3834862 76.6971074,26.0902936 L76.6331405,26.019578 C75.5947934,24.8633028 74.2090909,24.1177798 72.7296694,23.8808073 C73.0703306,23.0976697 73.26,22.2423119 73.278595,21.3463303 C73.3157851,19.5506055 72.6649587,17.8128073 71.4421488,16.451156 L71.3804132,16.3826972 C70.0475207,14.8976697 68.1723967,14.0460734 66.2355372,14.0460734 C64.6244628,14.0460734 63.0914876,14.6388807 61.9192562,15.7154128 L56.9781818,20.2524954 C55.6698347,21.4539083 54.9275207,23.1224954 54.8895868,24.9490642 C54.8523967,26.7462936 55.5039669,28.4825872 56.7238017,29.8419817 L56.7885124,29.9134495 C57.9741322,31.2344771 59.5904132,32.0507156 61.2966942,32.2162202 C60.566281,34.3858349 61.023719,36.9346055 62.7024793,38.8063119 L62.7664463,38.8770275 C63.6619835,39.8753211 64.8171074,40.5651743 66.0666942,40.8901651 C64.5686777,43.1109358 64.7568595,46.2344587 66.6996694,48.4010642 L66.6996694,48.4010642 Z" sketch:type="MSShapeGroup"/></g></g><text x="0" y="97" fill="#000000" font-size="5px" font-weight="bold" font-family="'Helvetica Neue', Helvetica, Arial-Unicode, Arial, Sans-serif">Created by Tatyana Kyul</text><text x="0" y="102" fill="#000000" font-size="5px" font-weight="bold" font-family="'Helvetica Neue', Helvetica, Arial-Unicode, Arial, Sans-serif">from the Noun Project</text></svg>